<svg width="75" height="44" viewBox="0 0 75 44" fill="none" xmlns="http://www.w3.org/2000/svg">
<path d="M75 0H0V44H75V0Z" fill="#E31937"/>
<path d="M68.7152 40.569H65.3524V23.0163H68.7152V40.569Z" fill="white"/>
<path d="M67.0396 12.5897L62.9709 19.4517H65.6913C65.6913 19.4517 66.7791 17.5363 67.0129 17.1232C67.2488 17.5363 68.3352 19.4517 68.3352 19.4517H71.0547L67.0396 12.5897Z" fill="white"/>
<path d="M57.2748 27.0324C56.8635 26.1647 56.0022 25.4917 55.0331 25.4917C54.0639 25.4917 53.1994 26.2445 53.1994 27.2163C53.1994 28.757 55.2183 29.4306 57.2746 30.3683C59.3302 31.3051 61.3151 32.5825 61.3151 35.3591C61.3151 38.6949 58.5449 41.1696 55.2963 41.1696C52.7533 41.1696 50.1713 39.7116 49.2388 37.2331L52.1167 35.9183C52.8261 37.2331 53.6844 38.1705 55.2961 38.1705C56.7145 38.1705 57.949 37.1948 57.949 35.6953C57.949 34.7583 57.4998 34.3069 56.7147 33.7827L53.4211 32.02C51.4802 30.9679 50.0584 29.9929 50.0584 27.5913C50.0584 24.7418 52.3765 22.4922 55.2181 22.4922C57.3504 22.4922 59.0701 23.6548 60.0024 25.5642L57.2744 27.0323L57.2748 27.0324Z" fill="white"/>
<path d="M29.1963 8.01501H32.5584V25.9424H32.6364C34.022 23.8389 36.115 22.4925 38.7299 22.4925C43.7774 22.4925 46.9575 26.8799 46.9575 31.6829C46.9575 36.486 43.964 41.1696 38.5811 41.1696C36.1148 41.1696 33.9833 39.8227 32.6364 37.8336H32.5584V40.569H29.1963V8.01501ZM43.5935 31.7945C43.5935 28.379 41.5351 25.4915 37.9065 25.4915C34.2779 25.4915 32.3748 28.5283 32.3748 31.7945C32.3748 35.0608 34.3573 38.1705 37.9065 38.1705C41.4558 38.1705 43.5935 35.2447 43.5935 31.7945Z" fill="white"/>
</svg>
